<?xml version="1.0" standalone="no"?>
<!DOCTYPE svg PUBLIC "-//W3C//DTD SVG 20010904//EN"
 "http://www.w3.org/TR/2001/REC-SVG-20010904/DTD/svg10.dtd">
<svg version="1.0" xmlns="http://www.w3.org/2000/svg"
 width="468.380384pt" height="408.000000pt" viewBox="0 0 468.380384 408.000000"
 preserveAspectRatio="xMidYMid meet">
<metadata>
Created by potrace 1.16, written by Peter Selinger 2001-2019
</metadata>
<g transform="translate(-115.619616,553.000000) scale(0.100000,-0.100000)"
fill="#000000" stroke="none">
<path d="M2263 4848 l4 -683 17 -75 c35 -152 114 -318 210 -447 62 -82 206
-217 297 -278 269 -181 610 -265 894 -222 55 9 113 20 127 26 41 15 60 53 61
118 0 77 -22 150 -95 313 -87 194 -108 261 -108 343 l0 69 39 39 39 39 44 0
c140 0 348 -202 576 -559 l66 -104 23 29 c34 42 99 153 133 230 103 229 159
564 139 835 -18 254 -122 490 -293 668 -169 175 -346 272 -585 321 l-99 20
-747 0 -746 0 4 -682z M3235 2497 l-100 -52 -3 -87 -3 -88 -35 0 -35 0 3 -92
3 -93 32 -3 31 -3 4 -222 3 -222 23 -47 c25 -51 75 -94 131 -114 22 -8 87 -13
169 -14 l132 0 0 100 0 100 -80 0 c-87 0 -122 11 -139 44 -11 21 -23 338 -13
364 3 8 32 12 96 12 50 0 101 3 114 6 l22 6 0 89 0 88 -116 3 -117 3 -1 134
c-1 79 -5 136 -11 137 -6 2 -55 -20 -110 -49z M5483 2494 l-103 -55 0 -85 0
-84 -35 0 -36 0 3 -97 3 -98 32 -3 31 -3 4 -222 3 -222 22 -40 c27 -51 57 -79
113 -104 l45 -21 138 0 137 0 0 100 0 100 -90 0 -91 0 -24 25 -25 24 0 181 0
180 115 0 115 0 0 100 0 100 -115 0 -115 0 -1 103 c-1 56 -2 119 -2 140 0 20
-5 37 -11 37 -6 0 -57 -25 -113 -56z m97 -114 l0 -130 120 0 120 0 0 -75 0
-75 -120 0 -120 0 0 -190 c0 -121 4 -198 12 -214 19 -44 56 -59 146 -64 l82
-5 0 -73 0 -74 -108 0 c-144 0 -198 16 -250 75 -22 25 -42 59 -46 76 -3 17 -6
130 -6 250 l0 219 -35 0 -35 0 0 75 0 75 35 0 35 0 0 90 0 90 78 39 c42 22 80
40 85 41 4 0 7 -58 7 -130z M1540 2509 c-82 -16 -183 -74 -244 -140 -102 -110
-141 -215 -140 -384 1 -167 37 -265 138 -372 45 -49 79 -73 140 -103 103 -49
202 -63 409 -58 l152 3 47 23 c59 29 103 87 128 171 29 92 28 94 -32 63 l-52
-27 -239 -3 -239 -3 -50 17 c-111 37 -178 147 -178 294 0 139 54 240 155 286
l50 24 293 0 292 0 0 110 0 110 -292 -1 c-161 -1 -313 -5 -338 -10z M2220
2013 c0 -169 5 -279 13 -319 16 -73 56 -144 102 -179 117 -90 310 -85 409 11
l36 35 0 -51 0 -50 110 0 110 0 0 405 0 405 -109 0 -109 0 -6 -22 c-3 -13 -6
-131 -6 -263 l0 -240 -19 -31 c-24 -39 -76 -64 -135 -64 -63 0 -111 22 -136
62 l-20 33 0 263 0 262 -120 0 -120 0 0 -257z M3824 2249 c-120 -46 -198 -160
-217 -314 -14 -113 0 -214 42 -300 36 -73 82 -117 161 -154 l55 -26 170 0 170
0 55 26 c79 37 125 82 160 155 61 127 64 307 6 437 -34 77 -107 148 -179 176
l-58 21 -157 -1 -157 0 -51 -20z m423 -28 c64 -29 126 -94 161 -169 l26 -57 1
-135 0 -135 -33 -67 c-40 -82 -105 -142 -175 -163 -69 -21 -315 -21 -384 0
-70 21 -135 81 -175 163 l-33 67 0 135 0 135 26 56 c31 65 89 133 133 156 69
36 109 43 256 40 l145 -3 52 -23z M3883 2081 c-25 -12 -52 -35 -67 -58 -49
-73 -58 -202 -20 -291 36 -87 88 -112 239 -112 86 0 119 5 151 19 81 37 108
99 103 242 l-4 96 -28 42 c-43 64 -88 81 -222 81 -87 0 -119 -4 -152 -19z
m307 -34 c51 -34 72 -79 78 -161 5 -90 -10 -148 -53 -194 l-33 -37 -134 -3
-133 -3 -34 19 c-20 10 -44 36 -55 58 -25 47 -33 160 -17 221 13 47 53 100 85
113 12 5 75 9 142 9 l121 1 33 -23z M4502 1972 l3 -297 33 -67 c53 -107 141
-158 276 -158 80 0 121 11 178 47 21 13 40 23 43 23 3 0 5 -13 5 -30 l0 -30
115 0 115 0 0 405 0 405 -117 0 -118 0 3 -197 c2 -109 1 -231 -3 -271 l-7 -73
-30 -34 c-47 -54 -148 -64 -213 -21 -50 33 -55 63 -55 341 l0 255 -115 0 -116
0 3 -298z m210 11 l3 -268 20 -27 c30 -40 70 -60 133 -65 l57 -4 44 23 c25 13
54 36 65 51 l21 28 3 265 3 264 89 0 90 0 0 -385 0 -385 -90 0 -90 0 0 50 c0
28 -2 50 -4 50 -2 0 -19 -14 -37 -32 -57 -52 -113 -73 -204 -73 -62 0 -92 6
-133 24 -62 28 -114 84 -138 150 l-18 46 -4 278 -3 277 95 0 95 0 3 -267z"/>
</g>
</svg>
