<?xml version="1.0" standalone="no"?>
<!DOCTYPE svg PUBLIC "-//W3C//DTD SVG 20010904//EN"
 "http://www.w3.org/TR/2001/REC-SVG-20010904/DTD/svg10.dtd">
<svg version="1.0" xmlns="http://www.w3.org/2000/svg"
 width="1063.160622pt" height="212.870755pt" viewBox="0 0 1063.160622 212.870755"
 preserveAspectRatio="xMidYMid meet">
<metadata>
Created by potrace 1.16, written by Peter Selinger 2001-2019
</metadata>
<g transform="translate(-167.887736,327.000000) scale(0.100000,-0.100000)"
fill="#000000" stroke="none">
<path d="M1682 2658 l4 -613 26 -96 c80 -295 284 -538 573 -682 96 -48 140
-65 262 -98 110 -29 319 -37 433 -15 l85 16 24 27 23 27 -4 75 -4 76 -48 110
c-105 239 -119 279 -124 346 -5 77 12 120 58 144 42 22 79 19 138 -11 109 -54
279 -245 423 -476 30 -48 56 -87 59 -87 13 -1 104 154 141 239 80 186 121 395
121 625 1 167 -14 260 -63 385 -83 215 -263 412 -476 519 -67 33 -190 70 -288
86 l-90 15 -638 0 -638 0 3 -612z M7933 3042 l-183 -97 0 -142 0 -143 -60 0
-61 0 3 -157 3 -158 58 -3 57 -3 0 -327 c0 -180 4 -353 10 -385 20 -125 95
-234 198 -286 83 -42 145 -51 359 -51 l203 0 0 170 0 170 -133 0 -133 0 -44
23 c-27 13 -50 35 -62 57 l-18 35 0 297 0 298 193 2 192 3 3 158 3 157 -196 0
-195 0 0 240 c0 132 -3 239 -7 239 -5 -1 -90 -45 -190 -97z M11720 3040 l-185
-98 -3 -141 -3 -141 -60 0 -59 0 2 -167 3 -168 57 -3 57 -3 3 -357 4 -357 17
-52 c22 -66 83 -146 143 -189 27 -19 77 -43 112 -54 l64 -20 219 0 219 0 -2
168 -3 167 -155 5 -155 5 -27 18 c-14 10 -33 33 -42 52 l-16 33 0 291 0 291
198 2 197 3 3 168 2 167 -200 0 -200 0 -2 239 -3 240 -185 -99z m344 -420
l194 0 6 -22 c3 -13 6 -69 6 -125 l0 -103 -200 0 -200 0 0 -322 0 -322 21 -43
c14 -30 35 -52 66 -70 l46 -27 132 -4 133 -5 1 -124 0 -125 -212 4 -212 4 -45
18 c-53 22 -115 68 -149 109 -13 16 -36 57 -50 90 l-26 62 -3 378 -4 377 -54
0 -54 0 0 125 0 125 55 0 54 0 3 148 3 147 145 77 145 77 3 -224 2 -225 194 0z
M5165 3069 c-155 -15 -327 -89 -449 -194 -67 -57 -153 -168 -195 -252 -75
-151 -110 -363 -91 -553 22 -227 105 -405 252 -546 114 -109 257 -186 412
-222 l71 -16 335 -1 335 0 60 24 c80 32 166 118 205 204 27 61 70 207 70 241
0 12 -10 9 -47 -14 -26 -17 -72 -40 -103 -52 l-55 -23 -369 -3 -369 -3 -73 16
c-128 28 -238 118 -295 240 -102 216 -67 503 80 658 59 62 123 100 206 122
l59 15 463 0 463 0 -2 183 -3 182 -440 1 c-242 1 -476 -2 -520 -7z M6220 2268
c0 -216 5 -441 10 -499 16 -173 61 -273 166 -368 69 -63 146 -99 248 -118 94
-16 190 -10 282 18 70 22 174 87 198 124 27 41 38 30 36 -32 -1 -32 -2 -68 -1
-80 l1 -23 185 0 185 0 0 685 0 685 -190 0 -190 0 0 -418 0 -418 -15 -50 c-16
-54 -66 -109 -125 -140 -45 -23 -166 -30 -225 -14 -56 16 -122 72 -146 124
l-19 41 0 438 0 437 -200 0 -200 0 0 -392z M8995 2645 c-212 -47 -365 -205
-432 -447 -13 -48 -17 -102 -17 -233 l-1 -170 23 -80 c13 -43 37 -106 55 -139
47 -89 143 -186 227 -230 104 -55 171 -66 418 -66 245 0 317 11 425 67 134 70
245 229 283 403 24 106 23 321 0 425 -43 194 -159 352 -310 425 -45 21 -108
43 -140 49 -85 16 -457 13 -531 -4z m530 -40 c96 -21 166 -57 240 -127 50 -46
74 -79 109 -151 57 -114 76 -208 76 -367 0 -175 -27 -287 -98 -400 -66 -106
-145 -169 -263 -212 l-64 -22 -250 -1 -250 0 -63 19 c-172 52 -299 193 -354
395 l-21 76 0 150 0 150 21 76 c63 233 216 383 425 418 90 15 414 12 492 -4z
M9035 2348 c-35 -12 -93 -53 -118 -82 -35 -41 -66 -114 -78 -181 -14 -84 -7
-241 15 -312 24 -75 83 -145 152 -179 l58 -28 160 -4 c188 -5 277 7 335 46 85
59 127 137 142 271 13 105 0 233 -30 303 -25 59 -83 123 -135 151 l-41 22
-215 2 c-135 1 -226 -2 -245 -9z m476 -55 c64 -33 112 -92 134 -165 20 -68 20
-257 0 -324 -23 -79 -69 -139 -127 -168 l-52 -26 -195 0 -196 0 -52 24 c-60
28 -103 81 -130 159 -24 72 -24 271 1 341 22 61 50 104 88 135 54 44 91 50
289 51 l185 0 55 -27z M10044 2198 c5 -510 8 -544 67 -662 35 -71 112 -155
175 -192 115 -67 291 -92 426 -59 81 19 150 51 196 89 16 15 33 26 36 26 3 0
6 -25 6 -55 l0 -55 195 0 195 0 0 685 0 685 -195 0 -195 0 0 -428 0 -428 -15
-46 c-20 -56 -66 -105 -125 -132 -65 -29 -179 -28 -243 3 -58 28 -102 80 -116
137 -7 27 -11 195 -11 468 l0 426 -200 0 -201 0 5 -462z m356 4 l0 -418 15
-45 c47 -136 202 -206 365 -165 59 15 117 48 148 86 7 8 24 38 37 65 l25 50 0
423 0 422 150 0 150 0 0 -645 0 -645 -150 0 -150 0 0 79 c0 44 -4 82 -9 85 -5
3 -16 -6 -25 -19 -27 -42 -131 -112 -198 -134 -194 -64 -413 -19 -534 111 -55
58 -74 90 -107 177 l-21 56 -4 468 -3 467 155 0 156 0 0 -418z"/>
</g>
</svg>
