<?xml version="1.0" standalone="no"?>
<!DOCTYPE svg PUBLIC "-//W3C//DTD SVG 20010904//EN"
 "http://www.w3.org/TR/2001/REC-SVG-20010904/DTD/svg10.dtd">
<svg version="1.0" xmlns="http://www.w3.org/2000/svg"
 width="1337.203059pt" height="316.677258pt" viewBox="0 0 1337.203059 316.677258"
 preserveAspectRatio="xMidYMid meet">
<metadata>
Created by potrace 1.16, written by Peter Selinger 2001-2019
</metadata>
<g transform="translate(-166.827858,641.930553) scale(0.100000,-0.100000)"
fill="#000000" stroke="none">
<path d="M7800 6352 c-69 -36 -206 -109 -305 -161 l-180 -96 -3 -237 -2 -238
-23 0 c-12 -1 -56 -2 -97 -3 l-75 -2 -3 -272 -2 -273 100 0 100 0 0 -562 c0
-320 5 -593 10 -633 14 -98 55 -214 99 -282 60 -93 161 -180 266 -229 49 -23
122 -49 162 -58 l72 -16 345 0 346 0 0 284 0 284 -227 4 -228 4 -52 23 c-68
30 -118 86 -137 152 l-16 53 0 488 0 488 328 2 327 3 0 270 0 270 -328 0 -327
0 0 403 c0 315 -3 402 -12 401 -7 0 -69 -31 -138 -67z M14033 6252 l-313 -167
-2 -235 -3 -235 -98 -3 -97 -3 2 -282 3 -282 97 -3 97 -3 3 -592 4 -592 22
-78 c65 -233 228 -395 472 -468 l75 -23 373 -4 372 -4 -2 289 -3 288 -250 5
-250 5 -40 22 c-51 27 -89 67 -112 118 l-18 40 -3 498 -3 497 340 0 341 0 0
285 0 285 -337 2 -338 3 -3 403 c-1 221 -6 402 -10 401 -4 0 -148 -75 -319
-167z m257 -332 l0 -380 338 -2 337 -3 0 -210 0 -210 -337 -3 -338 -2 0 -513
c0 -390 3 -525 14 -568 26 -114 90 -185 201 -224 40 -15 92 -19 258 -23 l207
-4 -2 -212 -3 -211 -270 -3 c-360 -4 -443 8 -594 81 -82 40 -185 141 -229 224
-18 34 -42 97 -54 140 l-22 78 -4 617 -3 617 -97 3 -97 3 1 35 c0 19 1 115 2
212 l2 177 96 3 95 3 2 249 2 250 240 128 c132 70 243 127 248 128 4 0 7 -171
7 -380z M2965 6310 c-181 -16 -339 -58 -500 -136 -143 -69 -241 -139 -366
-264 -215 -213 -340 -450 -399 -757 -42 -220 -42 -516 -1 -719 43 -207 131
-414 248 -575 66 -92 219 -244 313 -311 149 -106 372 -203 560 -244 l85 -19
575 0 575 0 70 22 c174 55 315 194 401 396 37 86 88 268 100 357 l7 52 -54
-42 c-64 -48 -170 -102 -254 -126 l-60 -18 -635 -3 -634 -4 -80 16 c-218 44
-404 191 -507 399 -59 120 -86 221 -99 369 -16 179 9 362 70 513 86 216 251
373 465 445 l70 24 820 5 820 5 0 310 0 310 -750 1 c-412 1 -790 -2 -840 -6z
M4738 5613 l-18 -4 0 -747 c0 -810 4 -869 55 -1027 136 -416 535 -637 1012
-560 177 29 321 101 441 222 l72 74 0 -141 0 -140 320 0 320 0 -2 1163 -3
1162 -320 0 -320 0 -5 -735 c-4 -490 -9 -745 -16 -765 -20 -54 -53 -114 -84
-149 -125 -142 -399 -186 -589 -94 -70 33 -153 122 -182 193 l-24 60 -5 745
-5 745 -315 2 c-173 1 -323 -1 -332 -4z M9463 5596 c-204 -39 -366 -125 -507
-270 -77 -80 -128 -156 -187 -280 -85 -179 -119 -356 -119 -623 0 -191 20
-340 65 -478 30 -91 89 -213 135 -280 49 -72 148 -172 216 -221 82 -59 212
-119 315 -145 l84 -22 369 -4 370 -5 98 17 c119 20 219 53 307 101 265 146
433 411 493 779 19 121 16 437 -6 560 -33 180 -110 375 -200 499 -61 85 -157
177 -248 237 -92 60 -153 87 -278 122 l-75 21 -380 2 c-284 2 -398 0 -452 -10z
m892 -84 c90 -25 203 -76 270 -122 209 -144 354 -395 400 -694 24 -152 16
-492 -13 -617 -46 -195 -130 -355 -252 -483 -132 -138 -305 -221 -505 -245
-132 -16 -649 -14 -761 3 -230 34 -409 134 -541 300 -78 100 -123 184 -167
317 -51 152 -69 304 -63 514 6 188 23 292 69 423 60 171 131 285 246 394 127
121 298 204 470 227 37 5 225 8 417 7 l350 -3 80 -21z M9560 5099 c-84 -14
-188 -70 -246 -131 -133 -141 -183 -317 -171 -607 9 -211 52 -340 149 -446 63
-69 121 -110 196 -137 l57 -22 293 -4 c197 -2 316 0 363 8 207 35 355 193 405
430 25 118 25 363 1 480 -44 206 -158 347 -333 412 l-59 22 -300 2 c-165 1
-325 -2 -355 -7z m690 -87 c119 -35 223 -151 272 -302 l21 -65 4 -180 c6 -209
-6 -286 -61 -402 -63 -132 -166 -210 -306 -232 -80 -13 -502 -14 -589 -1 -178
25 -302 151 -358 360 -24 92 -24 376 0 474 39 158 121 272 234 328 l65 32 96
6 c54 4 203 5 332 3 178 -4 248 -9 290 -21z M11200 4869 l0 -741 16 -107 c32
-217 108 -384 234 -511 89 -91 177 -149 283 -190 321 -125 711 -73 954 126 23
19 44 34 47 34 3 0 6 -45 6 -100 l0 -100 325 0 325 0 0 1165 0 1165 -330 0
-330 0 -2 -753 -3 -752 -33 -67 c-35 -71 -97 -135 -164 -169 -106 -54 -296
-63 -411 -19 -107 41 -191 124 -224 223 l-18 52 -3 743 -3 742 -334 0 -335 0
0 -741z m600 -21 l0 -693 15 -64 c21 -86 58 -151 120 -210 94 -89 208 -131
357 -131 105 0 173 13 255 50 67 31 152 103 189 162 13 20 34 65 46 100 l23
63 3 708 3 707 254 0 255 0 -2 -1092 -3 -1093 -252 -3 -253 -2 0 134 c0 166
-8 179 -69 110 -58 -66 -153 -140 -230 -179 -225 -113 -532 -121 -772 -19
-264 111 -424 351 -458 689 -7 67 -11 366 -11 782 l0 673 265 0 265 0 0 -692z"/>
</g>
</svg>
