<?xml version="1.0" standalone="no"?>
<!DOCTYPE svg PUBLIC "-//W3C//DTD SVG 20010904//EN"
 "http://www.w3.org/TR/2001/REC-SVG-20010904/DTD/svg10.dtd">
<svg version="1.0" xmlns="http://www.w3.org/2000/svg"
 width="833.940469pt" height="809.781978pt" viewBox="0 0 833.940469 809.781978"
 preserveAspectRatio="xMidYMid meet">
<metadata>
Created by potrace 1.16, written by Peter Selinger 2001-2019
</metadata>
<g transform="translate(-229.919589,1051.058064) scale(0.100000,-0.100000)"
fill="currentColor" stroke="none">
<path d="M2303 8333 c4 -2359 1 -2250 57 -2563 120 -667 427 -1303 884 -1827
106 -122 342 -356 458 -456 1009 -863 2471 -1259 3663 -992 164 37 220 59 267
108 81 83 112 182 111 352 -1 249 -80 501 -323 1030 -172 372 -245 548 -303
730 -130 405 -105 654 80 827 65 59 134 95 215 107 329 53 879 -359 1414
-1059 203 -265 499 -699 694 -1018 58 -94 107 -171 110 -171 9 -1 166 222 246
349 108 171 266 488 351 705 198 502 327 1050 389 1660 21 211 30 793 15 980
-80 977 -512 1855 -1219 2478 -553 487 -1194 781 -1942 892 -263 38 -250 38
-2738 42 l-2433 4 4 -2178z"/>
</g>
</svg>
